name C:\Users\u0101727\Documents\MyRepositories\paper-ad\predictivesimulations_2d/Results/PredSim_2D/IK_c9.mot
datacolumns 11
datarows 30
range 1.27595383 1.55416933
endheader
time	pelvis_tilt	pelvis_tx	pelvis_ty	hip_flexion_l	hip_flexion_r	knee_angle_l	knee_angle_r	ankle_angle_l	ankle_angle_r	lumbar_extension	
          1.27595383	        -15.13025999	          1.69369367	          0.90060800	         33.22069203	         10.39792492	        -37.56161341	         -7.29188345	         15.70426573	         11.30436627	          9.45486496	
          1.28554747	        -15.12956961	          1.70568133	          0.89974928	         34.18916142	          9.62222822	        -36.08866935	         -7.33969031	         15.98980745	         11.31497219	          9.41499178	
          1.29514111	        -15.12995627	          1.71772454	          0.89883258	         35.09648580	          8.86417029	        -34.49911789	         -7.42320871	         16.19446882	         11.31332706	          9.37837226	
          1.30473475	        -15.13181112	          1.72982976	          0.89785675	         35.93918553	          8.12270538	        -32.80069283	         -7.54138526	         16.32736526	         11.30303343	          9.34531552	
          1.31432838	        -15.13545594	          1.74200514	          0.89682065	         36.71268316	          7.39748444	        -31.00488054	         -7.69451104	         16.39727489	         11.28491398	          9.31620771	
          1.32392202	        -15.14095977	          1.75426266	          0.89572694	         37.41027221	          6.68940341	        -29.13786843	         -7.88625369	         16.41233987	         11.25735909	          9.29163936	
          1.33351566	        -15.14835110	          1.76662057	          0.89458803	         38.01900017	          6.00049584	        -27.23383882	         -8.12285405	         16.37984728	         11.21432738	          9.27291450	
          1.34310930	        -15.15765116	          1.77910036	          0.89342561	         38.52309307	          5.33391794	        -25.32498438	         -8.41143384	         16.30619235	         11.14340521	          9.26175354	
          1.35270294	        -15.16854047	          1.79172081	          0.89226222	         38.91313404	          4.69408201	        -23.43913888	         -8.76047273	         16.19676117	         11.02831119	          9.25934264	
          1.36229657	        -15.18022221	          1.80449651	          0.89111580	         39.18899723	          4.08624893	        -21.59816997	         -9.17982282	         16.05567550	         10.85251762	          9.26608740	
          1.37189021	        -15.19148412	          1.81744032	          0.89000067	         39.35757197	          3.51570206	        -19.82368937	         -9.67979749	         15.88553427	         10.60174984	          9.28191605	
          1.38148385	        -15.20110633	          1.83056610	          0.88892900	         39.42607674	          2.98732571	        -18.13050562	        -10.27007697	         15.68752811	         10.26316347	          9.30691992	
          1.39107749	        -15.20794546	          1.84388832	          0.88790996	         39.40133388	          2.50555421	        -16.53041106	        -10.95923206	         15.46154715	          9.82461114	          9.34133783	
          1.40067113	        -15.21074719	          1.85742116	          0.88694884	         39.29093665	          2.07500444	        -15.04045171	        -11.75626249	         15.20630836	          9.27524215	          9.38530922	
          1.41026476	        -15.20824866	          1.87117903	          0.88604670	         39.09992542	          1.70119753	        -13.67517985	        -12.67146046	         14.91979737	          8.60408089	          9.43912640	
          1.41985840	        -15.19904594	          1.88517553	          0.88519925	         38.83307719	          1.39004414	        -12.45447850	        -13.71575590	         14.59913242	          7.80068911	          9.50304185	
          1.42945204	        -15.18158220	          1.89942240	          0.88439536	         38.49574655	          1.14720179	        -11.40713640	        -14.89935395	         14.24051111	          6.85755790	          9.57720602	
          1.43904568	        -15.15441670	          1.91393075	          0.88361592	         38.08826078	          0.97745906	        -10.56401904	        -16.23154550	         13.83957277	          5.77470238	          9.66220869	
          1.44863931	        -15.11635973	          1.92870882	          0.88282941	         37.60358314	          0.88373619	         -9.95877097	        -17.72529877	         13.39133133	          4.57447684	          9.75911121	
          1.45823295	        -15.06725662	          1.94375034	          0.88199196	         37.02374047	          0.86875998	         -9.63953185	        -19.38655779	         12.89097934	          3.27042687	          9.86905641	
          1.46782659	        -15.00966401	          1.95903826	          0.88112697	         36.28066545	          0.93976767	         -9.72685979	        -21.21220496	         12.33643933	          1.84255609	          9.99601671	
          1.47742023	        -14.95179392	          1.97438670	          0.88036139	         35.41750015	          1.10139099	        -10.04107857	        -23.18366367	         11.76705374	          0.37620181	         10.13056535	
          1.48701387	        -14.90462232	          1.98945494	          0.87992476	         34.55942973	          1.38048976	        -10.32125176	        -25.20847880	         11.21676246	         -0.90710065	         10.24945814	
          1.49660750	        -14.87671320	          2.00399584	          0.88007888	         33.74370408	          1.80533179	        -10.57951369	        -27.14642153	         10.68544498	         -1.90931987	         10.33877981	
          1.50620114	        -14.87040725	          2.01794643	          0.88097953	         32.97277575	          2.37181065	        -10.81073669	        -28.93486184	         10.18776998	         -2.65983994	         10.39738921	
          1.51579478	        -14.88101343	          2.03139000	          0.88258586	         32.22811646	          3.06314261	        -11.00293337	        -30.59451305	          9.74003321	         -3.16809171	         10.43142822	
          1.52538842	        -14.90193931	          2.04445076	          0.88468802	         31.48860845	          3.85878822	        -11.14718106	        -32.15449105	          9.35372225	         -3.44681754	         10.44792240	
          1.53498206	        -14.92782026	          2.05723622	          0.88705341	         30.73744292	          4.74319001	        -11.23665926	        -33.63238191	          9.03511116	         -3.51160175	         10.45218506	
          1.54457569	        -14.95521758	          2.06982061	          0.88949928	         29.96517552	          5.70432080	        -11.26945470	        -35.03665241	          8.78581962	         -3.37746463	         10.44741067	
          1.55416933	        -14.98223687	          2.08225092	          0.89190201	         29.16728346	          6.73317181	        -11.24601152	        -36.36862301	          8.60480984	         -3.06069908	         10.43535573	
